<svg width="203" height="42" viewBox="0 0 203 42" fill="none" xmlns="http://www.w3.org/2000/svg">
<g clip-path="url(#clip0_2001_120)">
<path d="M17.5 0C19.1664 0 20.5172 1.34315 20.5172 3V7.99453H20.5102C20.4242 9.31218 19.4717 10.4275 18.1591 10.713L16.8037 11.0077C16.1533 11.1492 15.6899 11.722 15.6899 12.3841L15.6897 39C15.6897 40.6569 14.3388 42 12.6724 42C11.006 42 9.65517 40.6569 9.65517 39V14.8664H9.65841C9.71836 13.5224 10.6803 12.3771 12.013 12.0873L13.3693 11.7923C14.0197 11.6508 14.4833 11.078 14.4833 10.4159L14.4828 3C14.4828 1.34315 15.8336 0 17.5 0Z" fill="#06141B"/>
<path d="M22.3276 12C23.994 12 25.3448 13.3431 25.3448 15V39C25.3448 40.6569 23.994 42 22.3276 42C20.6612 42 19.3103 40.6569 19.3103 39V15C19.3103 13.3431 20.6612 12 22.3276 12Z" fill="#06141B"/>
<path d="M3.01724 13.2C4.68362 13.2 6.03448 14.5431 6.03448 16.2V25.8C6.03448 27.4569 4.68362 28.8 3.01724 28.8C1.35087 28.8 0 27.4569 0 25.8V16.2C1.55515e-07 14.5431 1.35087 13.2 3.01724 13.2Z" fill="#06141B"/>
<path d="M31.9828 13.2C33.6491 13.2 35 14.5431 35 16.2V25.8C35 27.4569 33.6491 28.8 31.9828 28.8C30.3164 28.8 28.9655 27.4569 28.9655 25.8V16.2C28.9655 14.5431 30.3164 13.2 31.9828 13.2Z" fill="#06141B"/>
<path d="M140.419 33V9H158.102V13.32H145.046V18.8057H155.532V22.8857H145.046V28.68H158.102V33H140.419Z" fill="#06141B"/>
<path d="M114.476 33V9H126.573C128.126 9 129.474 9.27429 130.617 9.82286C131.759 10.3486 132.627 11.08 133.221 12.0171C133.815 12.9543 134.112 14.0057 134.112 15.1714C134.112 16.52 133.758 17.6171 133.05 18.4629C132.341 19.3086 131.473 19.88 130.445 20.1771V20.3486C131.702 20.6 132.776 21.2057 133.667 22.1657C134.58 23.1029 135.037 24.3828 135.037 26.0056C135.037 27.3315 134.695 28.5315 134.009 29.6056C133.347 30.6572 132.364 31.4914 131.062 32.1085C129.76 32.7028 128.206 33 126.401 33H114.476ZM126.162 28.8171C127.053 28.8171 127.806 28.68 128.423 28.4057C129.063 28.1315 129.531 27.7657 129.828 27.3085C130.125 26.8515 130.274 26.3372 130.274 25.7656C130.274 25.1715 130.125 24.6458 129.828 24.1885C129.531 23.7086 129.063 23.3429 128.423 23.0914C127.806 22.8171 127.053 22.68 126.162 22.68H119.102V28.8171H126.162ZM126.024 18.6C127.098 18.6 127.921 18.3486 128.492 17.8457C129.086 17.3429 129.383 16.6914 129.383 15.8914C129.383 15.0914 129.086 14.44 128.492 13.9371C127.921 13.4343 127.098 13.1829 126.024 13.1829H119.102V18.6H126.024Z" fill="#06141B"/>
<path d="M103.428 33V9H108.055V33H103.428Z" fill="#06141B"/>
<path d="M77.7191 33V9H88.7537C90.6271 9 92.2605 9.35429 93.654 10.0629C95.0705 10.7486 96.1444 11.6972 96.8753 12.9086C97.6292 14.12 98.0061 15.4571 98.0061 16.92C98.0061 18.7029 97.4922 20.2229 96.4641 21.48C95.4361 22.7371 94.054 23.6629 92.3176 24.2571L97.972 33H92.6945L87.52 24.84H82.3454V33H77.7191ZM88.6166 20.52C90.1472 20.52 91.301 20.2 92.0777 19.56C92.8773 18.8971 93.2771 18.0171 93.2771 16.92C93.2771 15.8229 92.8773 14.9543 92.0777 14.3143C91.301 13.6514 90.1472 13.32 88.6166 13.32H82.3454V20.52H88.6166Z" fill="#06141B"/>
<path d="M60.8476 33V13.32H53V9H73.2872V13.32H65.4739V33H60.8476Z" fill="#06141B"/>
<path d="M198.374 33V9H203V33H198.374Z" fill="#C7BDB2"/>
<path d="M170.942 33L177.247 9H187.665L193.971 33H189.241L187.734 27.24H177.179L175.671 33H170.942ZM178.241 22.92H186.671L184.135 13.32H180.777L178.241 22.92Z" fill="#C7BDB2"/>
</g>
<defs>
<clipPath id="clip0_2001_120">
<rect width="203" height="42" fill="white"/>
</clipPath>
</defs>
</svg>
