<svg width="35" height="42" viewBox="0 0 35 42" fill="none" xmlns="http://www.w3.org/2000/svg">
<g clip-path="url(#clip0_2001_196)">
<path d="M17.5 0C19.1664 0 20.5172 1.34315 20.5172 3V7.99453H20.5102C20.4242 9.31218 19.4717 10.4275 18.1591 10.713L16.8037 11.0077C16.1533 11.1492 15.6899 11.722 15.6899 12.3841L15.6897 39C15.6897 40.6569 14.3388 42 12.6724 42C11.006 42 9.65517 40.6569 9.65517 39V14.8664H9.65841C9.71836 13.5224 10.6803 12.3771 12.013 12.0873L13.3693 11.7923C14.0197 11.6508 14.4833 11.078 14.4833 10.4159L14.4828 3C14.4828 1.34315 15.8336 0 17.5 0Z" fill="#C7BDB2"/>
<path d="M22.3276 12C23.994 12 25.3448 13.3431 25.3448 15V39C25.3448 40.6569 23.994 42 22.3276 42C20.6612 42 19.3103 40.6569 19.3103 39V15C19.3103 13.3431 20.6612 12 22.3276 12Z" fill="#C7BDB2"/>
<path d="M3.01724 13.2C4.68362 13.2 6.03448 14.5431 6.03448 16.2V25.8C6.03448 27.4569 4.68362 28.8 3.01724 28.8C1.35087 28.8 0 27.4569 0 25.8V16.2C1.55515e-07 14.5431 1.35087 13.2 3.01724 13.2Z" fill="#C7BDB2"/>
<path d="M31.9828 13.2C33.6491 13.2 35 14.5431 35 16.2V25.8C35 27.4569 33.6491 28.8 31.9828 28.8C30.3164 28.8 28.9655 27.4569 28.9655 25.8V16.2C28.9655 14.5431 30.3164 13.2 31.9828 13.2Z" fill="#C7BDB2"/>
</g>
<defs>
<clipPath id="clip0_2001_196">
<rect width="35" height="42" fill="white"/>
</clipPath>
</defs>
</svg>
