<svg width="100" height="16" viewBox="0 0 100 16" fill="none" xmlns="http://www.w3.org/2000/svg">
<g clip-path="url(#clip0_2001_144)">
<path d="M58.2796 16V0H70.0681V2.88H61.3638V6.53714H68.3547V9.25714H61.3638V13.12H70.0681V16H58.2796Z" fill="white"/>
<path d="M40.984 16V0H49.0486C50.0843 0 50.9829 0.182857 51.7444 0.548571C52.5059 0.899047 53.0847 1.38667 53.4807 2.01143C53.8767 2.63619 54.0747 3.33714 54.0747 4.11429C54.0747 5.01333 53.8386 5.74476 53.3665 6.30857C52.8943 6.87238 52.3155 7.25333 51.6302 7.45143V7.56572C52.4678 7.73333 53.1837 8.13714 53.7777 8.77714C54.3869 9.40191 54.6915 10.2552 54.6915 11.3371C54.6915 12.221 54.4631 13.021 54.0061 13.7371C53.5645 14.4381 52.9095 14.9943 52.0414 15.4057C51.1732 15.8019 50.1376 16 48.9343 16H40.984ZM48.7744 13.2114C49.3684 13.2114 49.871 13.12 50.2823 12.9371C50.7087 12.7543 51.0209 12.5105 51.2189 12.2057C51.4169 11.901 51.5159 11.5581 51.5159 11.1771C51.5159 10.781 51.4169 10.4305 51.2189 10.1257C51.0209 9.80572 50.7087 9.56191 50.2823 9.39429C49.871 9.21143 49.3684 9.12 48.7744 9.12H44.0682V13.2114H48.7744ZM48.683 6.4C49.3989 6.4 49.9472 6.23238 50.328 5.89714C50.7239 5.56191 50.9219 5.12762 50.9219 4.59429C50.9219 4.06095 50.7239 3.62667 50.328 3.29143C49.9472 2.95619 49.3989 2.78857 48.683 2.78857H44.0682V6.4H48.683Z" fill="white"/>
<path d="M33.6189 16V0H36.7031V16H33.6189Z" fill="white"/>
<path d="M16.4794 16V0H23.8358C25.0847 0 26.1737 0.236191 27.1027 0.708572C28.047 1.16571 28.7629 1.7981 29.2502 2.60571C29.7528 3.41333 30.0041 4.30476 30.0041 5.28C30.0041 6.46857 29.6615 7.48191 28.9761 8.32C28.2907 9.1581 27.3693 9.77524 26.2117 10.1714L29.9813 16H26.463L23.0133 10.56H19.5636V16H16.4794ZM23.7444 7.68C24.7648 7.68 25.534 7.46667 26.0518 7.04C26.5849 6.5981 26.8514 6.01143 26.8514 5.28C26.8514 4.54857 26.5849 3.96952 26.0518 3.54286C25.534 3.10095 24.7648 2.88 23.7444 2.88H19.5636V7.68H23.7444Z" fill="white"/>
<path d="M5.23171 16V2.88H0V0H13.5248V2.88H8.3159V16H5.23171Z" fill="white"/>
<path d="M96.9158 16V0H100V16H96.9158Z" fill="#C7BDB2"/>
<path d="M78.6279 16L82.8316 0H89.7767L93.9804 16H90.8276L89.8224 12.16H82.7859L81.7807 16H78.6279ZM83.4941 9.28H89.1142L87.4236 2.88H85.1847L83.4941 9.28Z" fill="#C7BDB2"/>
</g>
<defs>
<clipPath id="clip0_2001_144">
<rect width="100" height="16" fill="white"/>
</clipPath>
</defs>
</svg>
